<svg width="53" height="53" viewBox="0 0 53 53" fill="none" xmlns="http://www.w3.org/2000/svg">
<g id="Group">
<path id="Vector" d="M47.2985 26.8069C47.3394 32.4801 45.119 37.9035 41.1258 41.8838C37.1326 45.8641 31.6937 48.0754 26.0056 48.0311C23.1891 48.0092 20.3962 47.4342 17.7864 46.339C15.1766 45.2438 12.8009 43.6497 10.7951 41.6479C6.74411 37.605 4.44533 32.1466 4.40447 26.4733C4.3636 20.8001 6.584 15.3768 10.5772 11.3965C14.5704 7.41614 20.0093 5.20487 25.6974 5.2491C31.3855 5.29334 36.8569 7.58944 40.9079 11.6323C44.9589 15.6752 47.2577 21.1336 47.2985 26.8069Z" fill="#D40000"/>
<path id="Vector_2" d="M49.0522 25.6665C49.0933 31.3398 46.8731 36.7633 42.8801 40.7438C40.9029 42.7148 38.55 44.2722 35.9557 45.327C33.3614 46.3819 30.5765 46.9137 27.76 46.8919C22.0719 46.8479 16.6004 44.552 12.5492 40.5092C8.49798 36.4665 6.19896 31.0081 6.15785 25.3348C6.11675 19.6615 8.33694 14.238 12.33 10.2575C16.3231 6.27701 21.7619 4.06548 27.4501 4.10948C33.1382 4.15347 38.6097 6.44937 42.6609 10.4921C46.7121 14.5348 49.0111 19.9933 49.0522 25.6665Z" fill="#FF0000"/>
</g>
</svg>
