<svg width="70" height="72" viewBox="0 0 70 72" fill="none" xmlns="http://www.w3.org/2000/svg">
<g id="Group">
<path id="Vector" d="M59.4416 38.8261C59.4939 46.0843 56.6533 53.0227 51.5444 58.1149C46.4356 63.2072 39.4772 66.0363 32.1999 65.9797C24.9226 65.9231 17.9225 62.9856 12.7397 57.8133C7.5568 52.641 4.61568 45.6576 4.56333 38.3995C4.5374 34.8056 5.22146 31.2525 6.57646 27.9429C7.93145 24.6333 9.93084 21.6321 12.4605 19.1107C14.9901 16.5892 18.0004 14.5969 21.3196 13.2475C24.6387 11.8981 28.2017 11.2179 31.805 11.2459C35.4084 11.274 38.9816 12.0096 42.3206 13.4108C45.6596 14.812 48.699 16.8513 51.2653 19.4124C56.4481 24.5847 59.3892 31.568 59.4416 38.8261Z" fill="#ECCA3E"/>
<path id="Vector_2" d="M64.9251 34.1439C64.951 37.7378 64.2669 41.2909 62.9119 44.6005C61.5569 47.9101 59.5576 50.9113 57.0279 53.4327C54.4983 55.9542 51.488 57.9465 48.1688 59.2959C44.8497 60.6453 41.2867 61.3255 37.6834 61.2974C34.08 61.2694 30.5068 60.5338 27.1678 59.1326C23.8288 57.7314 20.7894 55.6921 18.2231 53.131C15.6569 50.57 13.6139 47.5374 12.211 44.2063C10.8081 40.8753 10.0727 37.3111 10.0468 33.7173C9.99446 26.4591 12.8351 19.5207 17.944 14.4284C23.0528 9.33616 30.0112 6.50713 37.2885 6.56371C44.5658 6.62029 51.5659 9.55783 56.7487 14.7301C61.9316 19.9024 64.8727 26.8857 64.9251 34.1439Z" fill="#D40000"/>
</g>
</svg>
