<svg width="65" height="66" viewBox="0 0 65 66" fill="none" xmlns="http://www.w3.org/2000/svg">
<g id="Group">
<path id="Vector" d="M59.6346 34.0879L32.7708 33.8819L22.4949 58.6588C25.4165 59.7492 28.5605 60.3879 31.8671 60.4139C46.7706 60.5297 59.0491 48.7943 59.6346 34.0879Z" fill="#EE0000"/>
<path id="Vector_2" d="M38.1327 6.50654C36.3523 6.12848 34.5049 5.92542 32.6116 5.91094C17.4656 5.79303 5.00892 17.9068 4.80408 32.9509C4.64347 44.711 12.0324 54.7634 22.4944 58.6626L32.7703 33.8857L59.6341 34.0917C59.644 33.8511 59.6762 33.6188 59.6796 33.3769C59.8592 20.2139 50.5977 9.14567 38.1327 6.50654Z" fill="#FF0000"/>
<path id="Vector_3" d="M24.4442 18.8133L22.2136 19.94L18.0934 22.0491C16.0119 25.0415 15.563 28.5687 15.7862 32.4567C16.3658 42.5428 22.2614 48.5995 32.0362 49.3739C37.0399 49.7705 41.8488 48.9339 45.2893 45.7984L51.5111 40.2048L24.4446 18.8134L24.4442 18.8133Z" fill="#AA0000"/>
</g>
</svg>
