<svg width="468" height="676" viewBox="0 0 468 676" fill="none" xmlns="http://www.w3.org/2000/svg">
<rect x="1" width="465" height="666" fill="#E7E7E7"/>
<path d="M37 532L427 532" stroke="black" stroke-width="2.5"/>
<line x1="40" y1="132.75" x2="430" y2="132.75" stroke="black" stroke-width="2.5"/>
<path d="M135.001 68.245H148.546C149.806 68.245 150.886 68.38 151.741 68.605C152.506 68.875 153.271 69.37 153.766 70.27C154.261 70.99 154.396 71.89 153.991 72.61C153.631 73.465 152.911 73.96 151.741 74.14C151.021 74.23 150.301 74.365 149.266 74.365C148.411 74.365 147.151 74.365 145.711 74.23C145.576 74.725 145.711 84.04 145.711 84.04C145.711 84.31 145.711 84.67 145.711 85.03C145.711 85.435 145.711 85.66 145.801 85.93C146.071 86.155 151.921 93.715 152.506 94.75C153.001 95.605 153.496 96.64 153.631 97.585C153.766 97.945 153.766 98.44 153.766 98.98C153.631 99.475 153.361 99.835 153.001 100.195C152.506 100.555 152.056 100.825 151.381 100.825C149.266 100.825 148.051 99.115 146.926 97.495C146.431 96.865 145.576 95.605 145.036 94.975C144.676 94.525 144.451 94.075 144.046 93.625C143.596 92.995 143.101 92.275 142.561 91.6C140.311 94.39 138.961 96.64 136.396 99.61C135.721 100.33 135.001 100.96 133.831 100.96C133.606 100.96 133.381 100.825 132.976 100.825C132.391 100.555 131.896 100.195 131.626 99.61C131.356 98.98 131.356 98.44 131.356 97.855C131.491 97.225 131.626 96.73 131.896 96.325C132.121 95.83 132.391 95.335 132.616 94.885C132.976 94.39 133.246 93.985 133.606 93.49C133.741 93.22 134.011 92.995 134.281 92.77C134.371 92.5 134.641 92.275 134.731 91.87C135.001 91.51 135.361 90.88 135.856 90.385C136.261 89.8 136.756 89.125 137.206 88.54C137.611 88.045 138.061 87.37 138.511 86.875C138.871 86.515 139.456 85.66 139.591 85.435V74.23H136.621C135.361 74.23 134.641 74.23 134.281 74.23C133.741 74.23 133.471 74.23 133.246 74.14C132.121 73.96 131.356 73.33 130.996 72.25C130.636 71.215 130.771 70.36 131.266 69.775C131.896 69.01 132.526 68.515 133.471 68.38C133.606 68.245 133.741 68.245 133.831 68.245C134.146 68.245 134.281 68.245 134.371 68.245C134.731 68.245 134.866 68.245 135.001 68.245ZM162.676 80.17H164.791C166.096 80.17 167.311 79.945 168.076 81.205C168.661 82.195 168.661 83.455 168.076 84.31C167.176 85.435 166.321 85.3 164.701 85.435C163.981 85.435 163.576 85.435 162.811 85.435H162.676C162.676 85.435 162.676 87.37 162.676 88.045C162.676 88.63 162.676 90.88 162.676 91.6C162.811 93.715 162.676 95.965 162.676 98.08C162.676 98.575 162.586 98.98 162.586 99.475C162.451 99.835 162.451 100.33 162.226 100.69C162.091 101.095 161.956 101.455 161.596 101.725C160.696 102.58 158.896 102.58 157.996 101.59C157.231 100.825 157.141 99.475 157.006 98.44C157.006 97.855 156.871 97.36 156.871 96.865V70.27C156.871 69.775 156.871 69.37 157.006 69.01C157.141 68.155 157.231 67.525 157.861 66.985C158.086 66.76 158.356 66.625 158.761 66.49C159.706 66.265 160.696 66.265 161.461 66.985C161.956 67.345 162.226 67.885 162.226 68.38C162.586 70.135 162.676 71.71 162.676 73.465C162.676 75.22 162.676 77.11 162.676 78.82V79.315V80.17ZM170.006 86.425C169.601 86.245 169.286 85.885 169.106 85.39C168.116 82.96 170.861 80.62 172.211 79C173.246 77.74 174.191 76.48 175.181 75.175C175.901 74.185 176.891 72.655 176.981 71.35C177.026 70.63 177.116 68.875 177.296 68.2C177.656 67.03 178.376 66.625 180.041 66.625C180.986 66.625 182.471 66.895 182.876 67.84C183.326 68.92 182.876 70.495 183.236 71.62C183.506 72.52 184.226 73.51 184.856 74.455C185.981 76.075 187.196 78.19 188.141 79.495C189.086 80.755 190.121 82.105 190.436 83.635C191.021 86.245 187.691 87.28 186.026 85.57C183.821 83.32 182.156 80.53 180.221 78.055C180.176 78.01 174.956 84.355 174.506 84.895C173.876 85.66 172.976 86.335 171.986 86.56C171.311 86.695 170.591 86.695 170.006 86.425ZM176.936 102.085C174.506 102.085 172.841 100.825 172.841 99.475V92.995C172.796 92.32 172.796 91.645 172.841 90.97C172.976 89.71 173.921 88.855 175.271 88.855C175.586 88.855 176.576 88.9 176.891 88.99C178.466 89.485 178.556 91.015 178.646 92.365C178.691 92.86 178.736 96.325 178.826 96.73C179.006 96.775 179.636 96.91 181.841 96.91C183.776 96.91 183.956 96.82 184.001 96.82H198.716C198.761 96.865 200.561 97.27 200.741 98.53C200.876 99.655 200.696 100.555 200.156 101.185C199.436 102.04 198.356 102.085 198.311 102.085H176.936ZM200.831 80.395H199.796V85.075C199.751 85.705 199.661 86.425 199.301 87.1C199.121 87.46 198.851 87.775 198.536 87.955C198.086 88.27 197.546 88.45 197.006 88.45C196.556 88.45 196.106 88.315 195.746 88.09C194.531 87.37 194.351 85.75 194.351 85.705V69.91C194.351 69.64 194.396 68.29 194.756 67.57C195.026 66.985 195.701 66.58 196.601 66.49C197.591 66.355 198.581 66.625 199.076 67.165C199.436 67.615 199.526 68.065 199.661 68.56C199.841 69.145 199.841 69.865 199.796 70.495V75.355C200.291 75.4 202.766 75.49 203.261 75.625C204.431 75.85 204.836 76.3 205.016 76.975C205.151 77.605 205.196 78.64 204.836 79.225C204.116 80.395 202.586 80.395 200.831 80.395ZM226.484 100.15C225.899 100.15 225.269 100.105 224.774 100.015C224.234 99.97 223.604 99.88 222.929 99.88C222.479 99.835 222.029 99.745 221.534 99.655C220.994 99.475 220.634 99.25 220.274 98.845C219.959 98.53 219.689 98.26 219.509 97.99C219.329 97.765 219.239 97.45 219.149 97.045C218.924 96.055 218.834 95.02 218.879 93.94C218.924 92.86 218.924 91.87 218.924 90.88V87.01C218.924 85.615 218.924 84.31 218.924 83.365C218.924 82.24 218.924 81.07 218.924 79.81C218.879 78.46 218.879 77.245 218.879 76.075C218.879 74.86 218.879 73.825 218.879 72.88C218.879 71.98 218.879 71.35 218.924 71.035C218.969 70.405 219.104 69.775 219.329 69.1C219.599 68.425 220.139 67.885 220.949 67.57C221.219 67.48 221.624 67.39 221.984 67.3C222.389 67.21 222.704 67.255 223.064 67.345C223.469 67.435 223.829 67.57 224.189 67.795C224.504 68.02 224.774 68.38 224.864 68.785C225.044 69.235 225.224 69.685 225.224 70.18C225.314 70.675 225.314 71.125 225.314 71.62C225.314 71.98 225.314 72.43 225.314 73.105C225.314 73.825 225.269 74.275 225.269 74.635C225.269 75.31 225.269 76.075 225.269 77.02C225.269 78.055 225.269 79.09 225.269 80.17C225.269 81.385 225.269 82.51 225.269 83.725C225.269 84.85 225.269 86.02 225.269 87.145C225.269 88.27 225.269 89.305 225.269 90.25C225.269 91.24 225.314 92.05 225.314 92.725C225.314 92.905 225.359 93.13 225.359 93.355C225.449 93.58 225.539 93.715 225.629 93.85C225.854 94.03 226.079 94.165 226.304 94.165C227.249 94.21 228.194 94.255 229.139 94.3C229.544 94.345 229.904 94.345 230.174 94.345C232.649 94.345 235.754 93.715 235.754 97.135C235.754 97.27 235.754 97.405 235.754 97.585C235.619 99.43 233.549 99.79 231.974 99.88C230.804 99.925 229.679 100.15 228.644 100.15C228.104 100.15 227.699 100.15 227.249 100.15C226.934 100.15 226.664 100.15 226.484 100.15ZM251.324 73.33V97.54C251.324 98.305 251.279 99.205 251.144 100.06C251.054 100.915 250.694 101.545 250.019 102.085C249.434 102.355 248.939 102.535 248.444 102.535C247.904 102.535 247.499 102.31 247.184 101.95C246.824 101.545 246.599 101.185 246.464 100.645C246.284 100.105 246.149 99.565 246.104 98.935C246.104 98.35 246.059 97.9 246.059 97.495V86.11H242.639V97.765C242.729 98.44 242.729 99.16 242.594 99.97C242.504 100.69 242.279 101.275 242.009 101.725C241.649 102.265 241.109 102.535 240.344 102.535C240.029 102.535 239.669 102.4 239.309 102.265C239.039 102.13 238.769 101.95 238.499 101.68C238.004 101.185 237.644 100.6 237.509 99.79C237.374 99.025 237.374 98.26 237.374 97.63V69.28C237.374 68.38 237.509 67.615 237.779 66.985C238.094 66.31 238.769 65.905 239.759 65.815C240.524 65.77 241.109 65.95 241.469 66.355C241.829 66.805 242.144 67.255 242.324 67.84C242.504 68.515 242.594 69.145 242.594 69.82C242.639 70.495 242.639 71.035 242.639 71.44V80.485H246.059V71.08C246.059 70.63 246.059 70.135 246.059 69.595C246.059 68.965 246.104 68.425 246.194 67.84C246.329 67.345 246.509 66.94 246.824 66.49C247.184 66.085 247.679 65.905 248.354 65.815C248.624 65.815 248.984 65.815 249.299 65.905C249.614 66.04 249.884 66.175 250.109 66.445C250.469 66.85 250.784 67.255 250.874 67.795C251.054 68.425 251.144 69.01 251.189 69.685C251.279 70.36 251.324 70.945 251.324 71.575C251.324 72.205 251.324 72.79 251.324 73.33ZM271.547 67.165C275.147 69.1 276.632 72.475 276.272 77.155C275.912 83.14 272.987 86.065 266.777 86.065C263.492 86.065 261.692 86.335 258.767 84.445C255.932 82.6 255.077 79.315 255.077 76.165C255.077 73.015 256.157 70.09 258.722 68.11C260.837 66.445 263.582 65.635 266.192 65.86C268.577 66.04 269.432 66.22 271.547 67.165ZM283.022 90.205C286.577 90.07 287.117 91.825 287.117 93.22V98.44C287.162 99.07 287.162 99.79 287.117 100.42C286.982 101.68 286.037 102.535 284.687 102.535C284.372 102.535 283.382 102.49 283.067 102.4C281.492 101.905 281.402 100.42 281.312 99.07C281.267 98.53 281.222 96.01 281.132 95.56C280.952 95.515 280.322 95.425 278.117 95.425C276.182 95.425 276.002 95.47 275.957 95.515H259.712L259.667 95.47C259.622 95.47 257.822 95.065 257.642 93.805C257.507 92.68 257.687 91.78 258.227 91.105C258.947 90.25 260.027 90.25 260.072 90.25L283.022 90.205ZM270.917 77.65C270.917 75.04 270.602 72.835 268.037 71.89C265.292 70.945 261.152 71.8 260.567 75.535C260.207 78.1 261.287 80.89 265.022 81.205C267.542 81.475 270.242 80.665 270.917 77.65ZM282.617 83.32H280.187C279.332 83.32 278.477 83.14 277.892 82.105C277.577 81.61 277.532 80.26 277.667 79.81C277.802 79.135 278.387 78.595 279.107 78.325C279.602 78.19 282.617 78.19 282.617 78.19V75.13L280.187 75.085C279.332 75.085 278.432 74.905 277.847 73.87C276.902 72.295 277.937 70.27 279.827 70.18L282.752 70.045L282.797 68.425C282.797 67.705 282.887 67.03 283.607 66.49C284.102 66.13 284.867 66.04 285.452 65.995C286.172 65.905 286.892 66.22 287.387 66.76C287.567 66.985 287.747 67.255 287.837 67.525C288.062 68.245 287.972 69.505 287.972 70.27V83.005C287.972 83.05 288.107 86.56 286.937 87.28C286.532 87.505 285.812 87.64 285.362 87.64C284.822 87.64 284.327 87.46 283.877 87.145C283.562 86.92 283.292 86.65 283.112 86.29C282.752 85.615 282.662 83.95 282.617 83.32ZM299.638 81.7V73.105C299.638 72.205 299.638 71.395 299.818 70.495C300.088 68.83 300.628 67.66 302.698 67.57C302.878 67.57 303.733 67.66 304.003 67.75C305.443 68.38 305.578 70.315 305.668 71.485C305.803 72.835 305.668 73.915 305.668 75.265C305.803 76.885 305.668 78.505 305.668 80.17C305.668 81.25 305.803 82.42 305.893 83.5C305.983 85.03 306.838 86.38 307.648 87.64C308.458 89.215 309.808 91.195 310.618 92.635C311.068 93.445 311.608 94.255 311.968 95.065C312.418 96.055 312.868 97.315 312.418 98.35C312.148 98.98 311.338 99.52 310.618 99.61C309.718 99.7 309.178 99.43 308.548 98.8C307.378 97.63 305.848 95.785 304.813 94.435C304.633 94.165 302.563 91.375 302.473 91.375C302.383 91.465 302.293 91.645 302.113 91.825C300.223 93.895 298.873 96.235 296.893 98.26C296.443 98.71 295.858 99.07 295.228 99.25C294.958 99.34 294.688 99.43 294.328 99.43C293.698 99.43 293.068 99.16 292.618 98.62C292.078 98.17 291.808 97.54 291.808 96.775C291.898 96.235 291.988 95.785 292.258 95.335C293.608 92.725 295.318 90.295 297.073 87.82C297.523 87.1 297.838 86.38 298.288 85.75C298.468 85.48 298.738 85.12 298.918 84.76C299.098 84.49 299.278 84.22 299.368 83.95C299.458 83.68 299.548 83.41 299.548 83.14C299.638 82.6 299.638 82.15 299.638 81.7ZM310.618 80.305C310.798 80.125 310.978 79.855 311.158 79.765C311.518 79.495 311.878 79.225 312.328 79.135C312.958 79.045 315.928 79.045 317.683 79.135L317.593 74.635C317.503 73.915 317.503 73.375 317.593 72.655V70.585C317.593 70.135 317.683 69.64 317.683 69.19C317.773 68.74 317.863 68.38 318.043 67.93C318.133 67.57 318.313 67.21 318.583 66.94C319.483 66.13 321.283 65.95 322.273 66.94C323.353 68.02 323.173 70.225 323.173 71.755V99.115C323.173 99.385 323.173 99.655 323.083 100.015C323.083 100.375 322.993 100.735 322.813 101.095C322.723 101.455 322.543 101.635 322.273 101.905C321.463 102.625 319.483 102.805 318.673 101.905C317.593 100.735 317.593 99.475 317.593 97.99V92.59C317.593 92.05 317.593 91.42 317.503 90.79L317.593 85.075C317.233 84.985 314.938 85.075 314.578 84.985C314.128 84.985 313.768 84.985 313.318 84.895C312.868 84.895 312.418 84.805 311.968 84.535C311.518 84.355 311.158 84.085 310.798 83.815C310.528 83.455 310.258 83.095 310.168 82.645C310.078 82.195 310.078 81.655 310.168 81.115C310.258 80.845 310.348 80.575 310.618 80.305Z" fill="black"/>
<path d="M22.5 637L41.9856 666.25H3.01443L22.5 637Z" fill="white"/>
<path d="M60.5 637L79.9856 666.25H41.0144L60.5 637Z" fill="white"/>
<path d="M328.5 637L347.986 666.25H309.014L328.5 637Z" fill="white"/>
<path d="M366.5 637L385.986 666.25H347.014L366.5 637Z" fill="white"/>
<path d="M405.5 637L424.986 666.25H386.014L405.5 637Z" fill="white"/>
<path d="M445.5 637L464.986 666.25H426.014L445.5 637Z" fill="white"/>
<path d="M100.5 637L119.986 666.25H81.0144L100.5 637Z" fill="white"/>
<path d="M138.5 637L157.986 666.25H119.014L138.5 637Z" fill="white"/>
<path d="M178.5 637L197.986 666.25H159.014L178.5 637Z" fill="white"/>
<path d="M216.5 637L235.986 666.25H197.014L216.5 637Z" fill="white"/>
<path d="M253.5 637L272.986 666.25H234.014L253.5 637Z" fill="white"/>
<path d="M291.5 637L310.986 666.25H272.014L291.5 637Z" fill="white"/>
<path d="M48.9973 452H414.003" stroke="#857F7F" stroke-width="3" stroke-dasharray="8 8"/>
</svg>
